# File created by Blade
# Date/Time:  Wed Jan 21 17:57:11 2015
# Frame Rate: 120.000 fps
#------------------------------------------------------
:FULLY-SPECIFIED
:DEGREES
341
root 19.215414 31.138951 -13.615678 -121.674617 2.330528 -179.078189
Spine 38.054732 2.785615 -0.986992
Head 165.406138 2.849553 181.767403
LeftShoulder 27.970197 -41.587208 -8.831905
LeftArm 56.161006 42.784160 -11.824044
LeftForeArm 30.102325 0.000000 17.390636
LeftHand 4.161007 0.000000 19.065007
LeftHandThumb1 -26.253704 0.000000 33.147579
RightShoulder 19.674577 10.022616 -6.104306
RightArm 56.305791 -3.437967 19.985492
RightForeArm -49.272189 -0.000000 29.271440
RightHand -3.412603 -0.000000 -17.373249
RightHandThumb1 -24.326973 -0.000000 -32.862282
LeftUpLeg -60.138429 22.576829 17.438234
LeftLeg -2.195852 -0.000000 0.000000
LeftFoot -11.460044 19.965022 -21.696788
LeftToeBase 31.804696 -0.000000 -0.000000
RightUpLeg -61.384647 -21.718545 -14.862039
RightLeg -5.667567 -0.000000 0.000000
RightFoot -3.990829 1.920324 35.198331
RightToeBase 26.978003 -0.000000 -0.000000
342
root 19.227579 31.108977 -13.544494 -121.268862 2.272767 -179.206870
Spine 38.606858 2.694900 -0.980645
Head 166.072530 2.906422 181.794610
LeftShoulder 28.296851 -41.971299 -8.776540
LeftArm 56.703304 42.489023 -10.829860
LeftForeArm 30.723552 -0.000000 17.333014
LeftHand 4.334130 -0.000000 19.082786
LeftHandThumb1 -26.253704 0.000000 33.147579
RightShoulder 19.825968 10.012590 -6.542195
RightArm 56.368724 -2.459114 19.407603
RightForeArm -49.486571 -0.000000 29.366732
RightHand -3.467877 -0.000000 -17.744691
RightHandThumb1 -24.326973 -0.000000 -32.862282
LeftUpLeg -60.860461 22.711741 17.021578
LeftLeg -2.107153 -0.000000 0.000000
LeftFoot -11.360062 19.760012 -21.594206
LeftToeBase 32.119270 -0.000000 -0.000000
RightUpLeg -61.856134 -21.946781 -14.749878
RightLeg -5.659803 -0.000000 0.000000
RightFoot -4.436443 2.141870 34.981234
RightToeBase 27.716243 -0.000000 -0.000000
343
root 19.242589 31.081742 -13.470704 -120.821231 2.258443 -179.301222
Spine 39.129519 2.708709 -0.995821
Head 166.810990 2.958182 181.880268
LeftShoulder 28.619619 -42.398825 -8.698417
LeftArm 57.345135 42.276439 -9.743802
LeftForeArm 31.599726 -0.000000 17.215856
LeftHand 4.506262 -0.000000 19.413646
LeftHandThumb1 -26.253704 0.000000 33.147579
RightShoulder 19.889905 10.043892 -6.991663
RightArm 56.426912 -1.547514 18.836477
RightForeArm -49.637178 -0.000000 29.432636
RightHand -3.416457 -0.000000 -18.257315
RightHandThumb1 -24.326973 -0.000000 -32.862282
LeftUpLeg -61.660321 22.961269 16.477172
LeftLeg -2.001033 -0.000000 0.000000
LeftFoot -11.189260 19.494704 -21.468670
LeftToeBase 32.129414 -0.000000 -0.000000
RightUpLeg -62.407628 -22.140315 -14.648103
RightLeg -5.614755 -0.000000 0.000000
RightFoot -4.790512 2.411961 34.698754
RightToeBase 28.276794 -0.000000 -0.000000
344
root 19.244039 31.060564 -13.392780 -120.306486 2.316571 -179.431107
Spine 39.560655 2.685406 -1.107200
Head 167.501936 2.991209 181.953631
LeftShoulder 28.918320 -42.839660 -8.601464
LeftArm 57.834680 42.021997 -8.804157
LeftForeArm 32.236829 -0.000000 17.164317
LeftHand 4.787611 -0.000000 19.591966
LeftHandThumb1 -26.253704 0.000000 33.147579
RightShoulder 20.039401 10.095575 -7.454338
RightArm 56.355193 -0.587968 18.383712
RightForeArm -49.876376 -0.000000 29.606323
RightHand -3.447566 0.000000 -18.574535
RightHandThumb1 -24.326973 -0.000000 -32.862282
LeftUpLeg -62.602035 23.251212 15.688746
LeftLeg -1.860434 -0.000000 0.000000
LeftFoot -11.036822 19.263288 -21.237518
LeftToeBase 32.338973 -0.000000 -0.000000
RightUpLeg -63.195434 -22.427889 -14.449833
RightLeg -5.410121 -0.000000 0.000000
RightFoot -5.030771 2.770035 34.709013
RightToeBase 28.921165 -0.000000 -0.000000
345
root 19.255658 31.045830 -13.318928 -119.822072 2.353968 -179.419756
Spine 40.077308 2.780240 -1.091307
Head 168.299055 3.035106 181.981493
LeftShoulder 29.299660 -43.304690 -8.608089
LeftArm 58.229632 41.730720 -7.858784
LeftForeArm 32.577971 -0.000000 17.187345
LeftHand 5.029797 0.000000 19.959575
LeftHandThumb1 -26.253704 0.000000 33.147579
RightShoulder 20.123715 10.216539 -7.984386
RightArm 56.275896 0.348018 17.987886
RightForeArm -50.116419 -0.000000 29.760924
RightHand -3.503739 -0.000000 -19.052579
RightHandThumb1 -24.326973 -0.000000 -32.862282
LeftUpLeg -63.519377 23.730809 14.890659
LeftLeg -1.719699 -0.000000 0.000000
LeftFoot -10.677698 19.190262 -21.013162
LeftToeBase 32.143757 -0.000000 -0.000000
RightUpLeg -63.952656 -22.578202 -14.172063
RightLeg -5.218340 -0.000000 0.000000
RightFoot -5.253762 3.045518 34.901283
RightToeBase 29.849290 -0.000000 -0.000000
346
root 19.259129 31.031478 -13.245344 -119.283105 2.409330 -179.380464
Spine 40.505085 2.870079 -1.071127
Head 169.034777 3.062513 181.979085
LeftShoulder 29.681012 -43.840325 -8.640975
LeftArm 58.489106 41.528543 -7.120850
LeftForeArm 33.136166 0.000000 17.195418
LeftHand 5.001176 -0.000000 20.738105
LeftHandThumb1 -26.253704 0.000000 33.147579
RightShoulder 20.237050 10.307313 -8.497598
RightArm 56.137815 1.288872 17.563397
RightForeArm -50.617901 0.000000 29.964502
RightHand -3.473809 0.000000 -19.378195
RightHandThumb1 -24.326973 -0.000000 -32.862282
LeftUpLeg -64.505795 24.250432 14.018971
LeftLeg -1.597281 -0.000000 0.000000
LeftFoot -10.387812 19.089706 -21.018583
LeftToeBase 31.906019 -0.000000 -0.000000
RightUpLeg -64.921971 -22.779255 -13.657736
RightLeg -4.893249 -0.000000 0.000000
RightFoot -5.499712 3.373129 34.714290
RightToeBase 30.566395 -0.000000 -0.000000
347
root 19.259105 31.021180 -13.174158 -118.750926 2.441390 -179.309145
Spine 40.950880 2.899052 -1.004922
Head 169.797143 2.966776 181.855444
LeftShoulder 29.935437 -44.273739 -8.623252
LeftArm 58.625689 41.107300 -6.485295
LeftForeArm 34.039460 -0.000000 17.311260
LeftHand 5.004332 0.000000 20.817626
LeftHandThumb1 -26.253704 0.000000 33.147579
RightShoulder 20.393863 10.307780 -8.998240
RightArm 56.073372 2.324842 16.939010
RightForeArm -50.715883 -0.000000 30.095830
RightHand -3.533537 -0.000000 -19.828214
RightHandThumb1 -24.326973 -0.000000 -32.862282
LeftUpLeg -65.534973 24.813503 13.037570
LeftLeg -1.502711 -0.000000 0.000000
LeftFoot -10.042742 18.669290 -20.755103
LeftToeBase 31.682547 -0.000000 -0.000000
RightUpLeg -65.657458 -22.845108 -13.443135
RightLeg -4.732319 -0.000000 0.000000
RightFoot -5.775521 3.408495 34.686989
RightToeBase 30.872106 -0.000000 -0.000000
348
root 19.255669 31.010434 -13.105033 -118.185527 2.458735 -179.174523
Spine 41.335067 2.987163 -0.850911
Head 170.512150 2.916739 181.734242
LeftShoulder 30.227676 -44.599846 -8.644760
LeftArm 58.791044 40.621312 -5.814339
LeftForeArm 34.744322 -0.000000 17.379275
LeftHand 4.970701 -0.000000 21.090235
LeftHandThumb1 -26.253704 0.000000 33.147579
RightShoulder 20.508041 10.174655 -9.485047
RightArm 55.959892 3.447179 16.202195
RightForeArm -50.868524 -0.000000 30.360229
RightHand -3.571764 0.000000 -19.954358
RightHandThumb1 -24.326973 -0.000000 -32.862282
LeftUpLeg -66.617178 25.421205 12.022374
LeftLeg -1.437850 -0.000000 0.000000
LeftFoot -9.736451 18.284166 -20.396503
LeftToeBase 31.378868 -0.000000 -0.000000
RightUpLeg -66.550576 -22.922761 -13.001813
RightLeg -4.470614 -0.000000 0.000000
RightFoot -6.140370 3.566731 34.343060
RightToeBase 31.034529 -0.000000 -0.000000
349
root 19.240925 30.998934 -13.041799 -117.664789 2.427159 -179.072903
Spine 41.769491 3.044634 -0.550651
Head 171.192947 2.914223 181.498640
LeftShoulder 30.729042 -44.938245 -8.885965
LeftArm 58.807945 40.154742 -5.285148
LeftForeArm 35.405070 0.000000 17.453504
LeftHand 5.125257 -0.000000 21.248260
LeftHandThumb1 -26.253704 0.000000 33.147579
RightShoulder 20.559273 10.231985 -10.095744
RightArm 55.729079 4.455684 15.744734
RightForeArm -51.221489 -0.000000 30.577475
RightHand -3.503190 -0.000000 -20.163690
RightHandThumb1 -24.326973 -0.000000 -32.862282
LeftUpLeg -67.742456 25.973575 10.953660
LeftLeg -1.308352 -0.000000 0.000000
LeftFoot -9.460374 17.942167 -19.907438
LeftToeBase 30.783716 -0.000000 -0.000000
RightUpLeg -67.459831 -23.088033 -12.437750
RightLeg -4.096466 -0.000000 0.000000
RightFoot -6.786894 3.520114 33.192040
RightToeBase 30.655548 -0.000000 -0.000000
350
root 19.230935 30.981869 -12.980439 -117.170719 2.398458 -178.931833
Spine 42.232555 3.072783 -0.367733
Head 171.966140 2.778248 181.432336
LeftShoulder 31.032421 -45.413727 -8.866727
LeftArm 58.469773 39.656032 -5.230352
LeftForeArm 36.210523 -0.000000 17.688150
LeftHand 5.072984 -0.000000 21.555925
LeftHandThumb1 -26.253704 0.000000 33.147579
RightShoulder 20.690086 10.429993 -10.648338
RightArm 55.475847 5.450191 15.533329
RightForeArm -51.836241 -0.000000 30.818054
RightHand -3.167544 -0.000000 -19.805248
RightHandThumb1 -24.326973 -0.000000 -32.862282
LeftUpLeg -68.731361 26.505239 10.020160
LeftLeg -1.276992 -0.000000 0.000000
LeftFoot -9.248641 17.835222 -19.380434
LeftToeBase 30.500755 -0.000000 -0.000000
RightUpLeg -68.267174 -23.171342 -12.000729
RightLeg -3.767552 -0.000000 0.000000
RightFoot -7.474934 2.761750 32.132141
RightToeBase 29.260897 -0.000000 -0.000000
351
root 19.219988 30.962227 -12.926575 -116.795507 2.469949 -178.854311
Spine 42.872216 2.652323 -0.754204
Head 172.940421 2.120790 181.413015
LeftShoulder 30.434806 -46.072666 -8.219911
LeftArm 58.456426 39.331340 -4.741706
LeftForeArm 36.606503 -0.000000 17.682751
LeftHand 5.078473 0.000000 22.448851
LeftHandThumb1 -26.253704 0.000000 33.147579
RightShoulder 21.338887 10.565064 -11.080559
RightArm 55.386259 6.566743 14.982587
RightForeArm -52.233883 -0.000000 31.035191
RightHand -3.238799 -0.000000 -19.976660
RightHandThumb1 -24.326973 -0.000000 -32.862282
LeftUpLeg -69.536911 26.978641 9.030520
LeftLeg -1.331152 -0.000000 0.000000
LeftFoot -9.063581 17.833173 -18.908737
LeftToeBase 29.964691 -0.000000 -0.000000
RightUpLeg -69.016287 -23.307665 -11.633239
RightLeg -3.395485 -0.000000 0.000000
RightFoot -8.117380 1.715722 31.598563
RightToeBase 27.445225 -0.000000 -0.000000
352
root 19.202856 30.935109 -12.881412 -116.459710 2.526538 -178.855018
Spine 43.475493 2.410615 -0.987917
Head 173.715546 1.704407 181.494798
LeftShoulder 30.311294 -46.558392 -7.860620
LeftArm 58.366919 38.927370 -4.363048
LeftForeArm 36.811618 -0.000000 17.802386
LeftHand 4.849750 -0.000000 22.522985
LeftHandThumb1 -26.253704 0.000000 33.147579
RightShoulder 21.803163 10.336250 -11.615436
RightArm 55.041912 7.912115 14.373773
RightForeArm -52.622174 -0.000000 31.505464
RightHand -3.481387 -0.000000 -19.850574
RightHandThumb1 -24.326973 -0.000000 -32.862282
LeftUpLeg -70.227757 27.310644 8.144456
LeftLeg -1.414128 -0.000000 0.000000
LeftFoot -8.875836 17.976505 -18.160803
LeftToeBase 29.025388 -0.000000 -0.000000
RightUpLeg -69.790896 -23.613453 -11.129495
RightLeg -2.977227 -0.000000 0.000000
RightFoot -8.961836 0.466390 30.969160
RightToeBase 25.377819 -0.000000 -0.000000
